<?xml version="1.0" encoding="UTF-8" standalone="no"?>
<!DOCTYPE svg PUBLIC "-//W3C//DTD SVG 1.1//EN"
 "http://www.w3.org/Graphics/SVG/1.1/DTD/svg11.dtd">
<!-- Generated by graphviz version 2.43.0 (0)
 -->
<!-- Title: valves Pages: 1 -->
<svg width="624pt" height="299pt"
 viewBox="0.00 0.00 624.11 299.21" xmlns="http://www.w3.org/2000/svg" xmlns:xlink="http://www.w3.org/1999/xlink">
<g id="graph0" class="graph" transform="scale(1 1) rotate(0) translate(4 295.21)">
<title>valves</title>
<polygon fill="white" stroke="transparent" points="-4,4 -4,-295.21 620.11,-295.21 620.11,4 -4,4"/>
<!-- AA -->
<g id="node1" class="node">
<title>AA</title>
<ellipse fill="none" stroke="black" cx="251.07" cy="-18" rx="32.49" ry="18"/>
<text text-anchor="middle" x="251.07" y="-14.3" font-family="Times,serif" font-size="14.00">0 AA</text>
</g>
<!-- BB -->
<g id="node2" class="node">
<title>BB</title>
<ellipse fill="none" stroke="black" cx="105.35" cy="-270.39" rx="38.99" ry="18"/>
<text text-anchor="middle" x="105.35" y="-266.69" font-family="Times,serif" font-size="14.00">13 BB</text>
</g>
<!-- AA&#45;&#45;BB -->
<g id="edge11" class="edge">
<title>AA&#45;&#45;BB</title>
<path fill="none" stroke="black" d="M237.12,-34.69C206.17,-80.12 133.92,-205.4 111.68,-252.36"/>
</g>
<!-- DD -->
<g id="node4" class="node">
<title>DD</title>
<ellipse fill="none" stroke="black" cx="323.93" cy="-144.19" rx="40.09" ry="18"/>
<text text-anchor="middle" x="323.93" y="-140.49" font-family="Times,serif" font-size="14.00">20 DD</text>
</g>
<!-- AA&#45;&#45;DD -->
<g id="edge9" class="edge">
<title>AA&#45;&#45;DD</title>
<path fill="none" stroke="black" d="M256.13,-36.05C267.16,-60.51 291.95,-103.7 308.48,-127.47"/>
</g>
<!-- II -->
<g id="node8" class="node">
<title>II</title>
<ellipse fill="none" stroke="black" cx="105.35" cy="-18" rx="27" ry="18"/>
<text text-anchor="middle" x="105.35" y="-14.3" font-family="Times,serif" font-size="14.00">II</text>
</g>
<!-- AA&#45;&#45;II -->
<g id="edge10" class="edge">
<title>AA&#45;&#45;II</title>
<path fill="none" stroke="black" d="M220.17,-12.36C193.77,-10.78 156.22,-10.89 131.34,-12.69"/>
</g>
<!-- BB&#45;&#45;AA -->
<g id="edge5" class="edge">
<title>BB&#45;&#45;AA</title>
<path fill="none" stroke="black" d="M119.58,-253.3C150.68,-207.52 222.65,-82.71 244.78,-35.95"/>
<text text-anchor="middle" x="177.18" y="-148.43" font-family="Times,serif" font-size="14.00">1</text>
</g>
<!-- CC -->
<g id="node3" class="node">
<title>CC</title>
<ellipse fill="none" stroke="black" cx="251.07" cy="-270.39" rx="33.29" ry="18"/>
<text text-anchor="middle" x="251.07" y="-266.69" font-family="Times,serif" font-size="14.00">2 CC</text>
</g>
<!-- BB&#45;&#45;CC -->
<g id="edge4" class="edge">
<title>BB&#45;&#45;CC</title>
<path fill="none" stroke="black" d="M142.5,-276.36C166.28,-277.49 196.8,-277.39 219.42,-276.07"/>
<text text-anchor="middle" x="175.96" y="-280.01" font-family="Times,serif" font-size="14.00">1</text>
</g>
<!-- JJ -->
<g id="node7" class="node">
<title>JJ</title>
<ellipse fill="none" stroke="black" cx="32.5" cy="-144.19" rx="32.49" ry="18"/>
<text text-anchor="middle" x="32.5" y="-140.49" font-family="Times,serif" font-size="14.00">21 JJ</text>
</g>
<!-- BB&#45;&#45;JJ -->
<g id="edge15" class="edge">
<title>BB&#45;&#45;JJ</title>
<path fill="none" stroke="black" d="M100.3,-252.34C89.2,-227.73 64.19,-184.19 47.66,-160.51"/>
<text text-anchor="middle" x="68.98" y="-210.23" font-family="Times,serif" font-size="14.00">3</text>
</g>
<!-- CC&#45;&#45;BB -->
<g id="edge20" class="edge">
<title>CC&#45;&#45;BB</title>
<path fill="none" stroke="black" d="M219.45,-264.71C196.77,-263.38 166.13,-263.29 142.32,-264.42"/>
</g>
<!-- CC&#45;&#45;DD -->
<g id="edge19" class="edge">
<title>CC&#45;&#45;DD</title>
<path fill="none" stroke="black" d="M266.11,-254.24C282.59,-230.67 307.62,-187.12 318.79,-162.42"/>
</g>
<!-- DD&#45;&#45;AA -->
<g id="edge2" class="edge">
<title>DD&#45;&#45;AA</title>
<path fill="none" stroke="black" d="M318.87,-126.14C307.77,-101.54 282.76,-57.99 266.24,-34.32"/>
<text text-anchor="middle" x="287.55" y="-84.03" font-family="Times,serif" font-size="14.00">1</text>
</g>
<!-- DD&#45;&#45;CC -->
<g id="edge1" class="edge">
<title>DD&#45;&#45;CC</title>
<path fill="none" stroke="black" d="M308.52,-160.85C292,-184.6 267.19,-227.82 256.14,-252.31"/>
<text text-anchor="middle" x="277.33" y="-210.38" font-family="Times,serif" font-size="14.00">1</text>
</g>
<!-- EE -->
<g id="node5" class="node">
<title>EE</title>
<ellipse fill="none" stroke="black" cx="429.08" cy="-144.19" rx="33.29" ry="18"/>
<text text-anchor="middle" x="429.08" y="-140.49" font-family="Times,serif" font-size="14.00">3 EE</text>
</g>
<!-- DD&#45;&#45;EE -->
<g id="edge3" class="edge">
<title>DD&#45;&#45;EE</title>
<path fill="none" stroke="black" d="M361.59,-150.7C373.49,-151.1 386.51,-151.01 397.91,-150.42"/>
<text text-anchor="middle" x="374.75" y="-154.36" font-family="Times,serif" font-size="14.00">1</text>
</g>
<!-- DD&#45;&#45;JJ -->
<g id="edge14" class="edge">
<title>DD&#45;&#45;JJ</title>
<path fill="none" stroke="black" d="M284.93,-139.42C226.61,-136.66 117.81,-136.79 64.12,-139.8"/>
<text text-anchor="middle" x="169.52" y="-128.41" font-family="Times,serif" font-size="14.00">3</text>
</g>
<!-- EE&#45;&#45;DD -->
<g id="edge6" class="edge">
<title>EE&#45;&#45;DD</title>
<path fill="none" stroke="black" d="M397.81,-137.96C386.43,-137.38 373.45,-137.29 361.57,-137.69"/>
</g>
<!-- HH -->
<g id="node6" class="node">
<title>HH</title>
<ellipse fill="none" stroke="black" cx="575.17" cy="-144.19" rx="40.89" ry="18"/>
<text text-anchor="middle" x="575.17" y="-140.49" font-family="Times,serif" font-size="14.00">22 HH</text>
</g>
<!-- EE&#45;&#45;HH -->
<g id="edge7" class="edge">
<title>EE&#45;&#45;HH</title>
<path fill="none" stroke="black" d="M460.78,-149.87C483.01,-151.17 512.88,-151.29 536.51,-150.23"/>
</g>
<!-- HH&#45;&#45;EE -->
<g id="edge8" class="edge">
<title>HH&#45;&#45;EE</title>
<path fill="none" stroke="black" d="M536.4,-138.15C512.73,-137.1 482.85,-137.22 460.63,-138.52"/>
<text text-anchor="middle" x="493.52" y="-142.14" font-family="Times,serif" font-size="14.00">3</text>
</g>
<!-- JJ&#45;&#45;BB -->
<g id="edge17" class="edge">
<title>JJ&#45;&#45;BB</title>
<path fill="none" stroke="black" d="M37.56,-162.24C48.59,-186.71 73.38,-229.9 89.91,-253.66"/>
</g>
<!-- JJ&#45;&#45;DD -->
<g id="edge16" class="edge">
<title>JJ&#45;&#45;DD</title>
<path fill="none" stroke="black" d="M64.24,-148.59C117.94,-151.59 226.54,-151.72 284.84,-148.97"/>
</g>
<!-- JJ&#45;&#45;II -->
<g id="edge18" class="edge">
<title>JJ&#45;&#45;II</title>
<path fill="none" stroke="black" d="M47.54,-128.05C64.11,-104.34 89.33,-60.45 100.4,-35.82"/>
</g>
<!-- II&#45;&#45;AA -->
<g id="edge12" class="edge">
<title>II&#45;&#45;AA</title>
<path fill="none" stroke="black" d="M131.41,-23.32C156.29,-25.12 193.81,-25.22 220.19,-23.63"/>
<text text-anchor="middle" x="170.8" y="-27.28" font-family="Times,serif" font-size="14.00">1</text>
</g>
<!-- II&#45;&#45;JJ -->
<g id="edge13" class="edge">
<title>II&#45;&#45;JJ</title>
<path fill="none" stroke="black" d="M90.85,-33.38C74.34,-56.82 48.8,-101.2 37.56,-126.14"/>
<text text-anchor="middle" x="59.2" y="-83.56" font-family="Times,serif" font-size="14.00">1</text>
</g>
</g>
</svg>
