<?xml version="1.0" encoding="UTF-8" standalone="no"?>
<!DOCTYPE svg PUBLIC "-//W3C//DTD SVG 1.1//EN"
 "http://www.w3.org/Graphics/SVG/1.1/DTD/svg11.dtd">
<!-- Generated by graphviz version 2.43.0 (0)
 -->
<!-- Title: valves Pages: 1 -->
<svg width="562pt" height="306pt"
 viewBox="0.00 0.00 561.77 306.04" xmlns="http://www.w3.org/2000/svg" xmlns:xlink="http://www.w3.org/1999/xlink">
<g id="graph0" class="graph" transform="scale(1 1) rotate(0) translate(4 302.04)">
<title>valves</title>
<polygon fill="white" stroke="transparent" points="-4,4 -4,-302.04 557.77,-302.04 557.77,4 -4,4"/>
<!-- AA -->
<g id="node1" class="node">
<title>AA</title>
<ellipse fill="none" stroke="black" cx="425.36" cy="-155.4" rx="27" ry="26.74"/>
<text text-anchor="middle" x="425.36" y="-159.2" font-family="Times,serif" font-size="14.00">0</text>
<text text-anchor="middle" x="425.36" y="-144.2" font-family="Times,serif" font-size="14.00">AA</text>
</g>
<!-- BB -->
<g id="node2" class="node">
<title>BB</title>
<ellipse fill="none" stroke="black" cx="463.14" cy="-236.21" rx="27" ry="26.74"/>
<text text-anchor="middle" x="463.14" y="-240.01" font-family="Times,serif" font-size="14.00">13</text>
<text text-anchor="middle" x="463.14" y="-225.01" font-family="Times,serif" font-size="14.00">BB</text>
</g>
<!-- AA&#45;&#45;BB -->
<g id="edge8" class="edge">
<title>AA&#45;&#45;BB</title>
<path fill="none" stroke="black" d="M430.86,-181.84C435.09,-192.57 440.8,-204.79 446.32,-214.93"/>
</g>
<!-- DD -->
<g id="node4" class="node">
<title>DD</title>
<ellipse fill="none" stroke="black" cx="345.79" cy="-191" rx="27.65" ry="26.74"/>
<text text-anchor="middle" x="345.79" y="-194.8" font-family="Times,serif" font-size="14.00">20</text>
<text text-anchor="middle" x="345.79" y="-179.8" font-family="Times,serif" font-size="14.00">DD</text>
</g>
<!-- AA&#45;&#45;DD -->
<g id="edge6" class="edge">
<title>AA&#45;&#45;DD</title>
<path fill="none" stroke="black" d="M398.49,-160.55C388.46,-164.34 377.2,-169.38 367.66,-174.33"/>
</g>
<!-- II -->
<g id="node9" class="node">
<title>II</title>
<ellipse fill="none" stroke="black" cx="472.65" cy="-85.98" rx="27" ry="26.74"/>
<text text-anchor="middle" x="472.65" y="-89.78" font-family="Times,serif" font-size="14.00">0</text>
<text text-anchor="middle" x="472.65" y="-74.78" font-family="Times,serif" font-size="14.00">II</text>
</g>
<!-- AA&#45;&#45;II -->
<g id="edge7" class="edge">
<title>AA&#45;&#45;II</title>
<path fill="none" stroke="black" d="M445.55,-137C451.54,-129.21 457.79,-120.03 462.86,-111.61"/>
</g>
<!-- BB&#45;&#45;AA -->
<g id="edge3" class="edge">
<title>BB&#45;&#45;AA</title>
<path fill="none" stroke="black" d="M457.64,-209.77C453.41,-199.04 447.7,-186.82 442.18,-176.68"/>
</g>
<!-- CC -->
<g id="node3" class="node">
<title>CC</title>
<ellipse fill="none" stroke="black" cx="384.61" cy="-271.17" rx="27" ry="26.74"/>
<text text-anchor="middle" x="384.61" y="-274.97" font-family="Times,serif" font-size="14.00">2</text>
<text text-anchor="middle" x="384.61" y="-259.97" font-family="Times,serif" font-size="14.00">CC</text>
</g>
<!-- BB&#45;&#45;CC -->
<g id="edge2" class="edge">
<title>BB&#45;&#45;CC</title>
<path fill="none" stroke="black" d="M436.16,-241.32C426.37,-245.02 415.45,-249.89 406.19,-254.68"/>
</g>
<!-- CC&#45;&#45;BB -->
<g id="edge5" class="edge">
<title>CC&#45;&#45;BB</title>
<path fill="none" stroke="black" d="M411.59,-266.05C421.38,-262.36 432.3,-257.49 441.56,-252.69"/>
</g>
<!-- CC&#45;&#45;DD -->
<g id="edge4" class="edge">
<title>CC&#45;&#45;DD</title>
<path fill="none" stroke="black" d="M378.77,-244.84C374.44,-234.28 368.64,-222.28 363.04,-212.28"/>
</g>
<!-- DD&#45;&#45;AA -->
<g id="edge19" class="edge">
<title>DD&#45;&#45;AA</title>
<path fill="none" stroke="black" d="M373.11,-185.68C383.12,-181.87 394.29,-176.86 403.74,-171.93"/>
</g>
<!-- DD&#45;&#45;CC -->
<g id="edge18" class="edge">
<title>DD&#45;&#45;CC</title>
<path fill="none" stroke="black" d="M351.64,-217.33C356.01,-227.98 361.87,-240.1 367.52,-250.15"/>
</g>
<!-- EE -->
<g id="node5" class="node">
<title>EE</title>
<ellipse fill="none" stroke="black" cx="263.47" cy="-176.53" rx="27" ry="26.74"/>
<text text-anchor="middle" x="263.47" y="-180.33" font-family="Times,serif" font-size="14.00">3</text>
<text text-anchor="middle" x="263.47" y="-165.33" font-family="Times,serif" font-size="14.00">EE</text>
</g>
<!-- DD&#45;&#45;EE -->
<g id="edge20" class="edge">
<title>DD&#45;&#45;EE</title>
<path fill="none" stroke="black" d="M320.39,-180.08C310.9,-177.87 300.09,-175.98 290.45,-174.86"/>
</g>
<!-- EE&#45;&#45;DD -->
<g id="edge12" class="edge">
<title>EE&#45;&#45;DD</title>
<path fill="none" stroke="black" d="M288.42,-187.34C297.84,-189.56 308.61,-191.46 318.25,-192.61"/>
</g>
<!-- FF -->
<g id="node6" class="node">
<title>FF</title>
<ellipse fill="none" stroke="black" cx="183.58" cy="-171.58" rx="27" ry="26.74"/>
<text text-anchor="middle" x="183.58" y="-175.38" font-family="Times,serif" font-size="14.00">0</text>
<text text-anchor="middle" x="183.58" y="-160.38" font-family="Times,serif" font-size="14.00">FF</text>
</g>
<!-- EE&#45;&#45;FF -->
<g id="edge11" class="edge">
<title>EE&#45;&#45;FF</title>
<path fill="none" stroke="black" d="M237.26,-168.49C228.58,-167.48 218.9,-166.89 210.19,-166.84"/>
</g>
<!-- FF&#45;&#45;EE -->
<g id="edge16" class="edge">
<title>FF&#45;&#45;EE</title>
<path fill="none" stroke="black" d="M209.78,-179.62C218.47,-180.63 228.14,-181.22 236.86,-181.28"/>
</g>
<!-- GG -->
<g id="node7" class="node">
<title>GG</title>
<ellipse fill="none" stroke="black" cx="104.98" cy="-163.85" rx="27.65" ry="26.74"/>
<text text-anchor="middle" x="104.98" y="-167.65" font-family="Times,serif" font-size="14.00">0</text>
<text text-anchor="middle" x="104.98" y="-152.65" font-family="Times,serif" font-size="14.00">GG</text>
</g>
<!-- FF&#45;&#45;GG -->
<g id="edge17" class="edge">
<title>FF&#45;&#45;GG</title>
<path fill="none" stroke="black" d="M158.03,-162.63C149.86,-161.38 140.78,-160.47 132.47,-160.08"/>
</g>
<!-- GG&#45;&#45;FF -->
<g id="edge9" class="edge">
<title>GG&#45;&#45;FF</title>
<path fill="none" stroke="black" d="M130.96,-172.86C139.2,-174.11 148.33,-175 156.63,-175.37"/>
</g>
<!-- HH -->
<g id="node8" class="node">
<title>HH</title>
<ellipse fill="none" stroke="black" cx="28.99" cy="-143.92" rx="28.98" ry="26.74"/>
<text text-anchor="middle" x="28.99" y="-147.72" font-family="Times,serif" font-size="14.00">22</text>
<text text-anchor="middle" x="28.99" y="-132.72" font-family="Times,serif" font-size="14.00">HH</text>
</g>
<!-- GG&#45;&#45;HH -->
<g id="edge10" class="edge">
<title>GG&#45;&#45;HH</title>
<path fill="none" stroke="black" d="M80.46,-150.75C73.35,-148.49 65.51,-146.42 58.14,-144.83"/>
</g>
<!-- HH&#45;&#45;GG -->
<g id="edge13" class="edge">
<title>HH&#45;&#45;GG</title>
<path fill="none" stroke="black" d="M54.35,-157.28C61.68,-159.57 69.72,-161.67 77.19,-163.23"/>
</g>
<!-- II&#45;&#45;AA -->
<g id="edge14" class="edge">
<title>II&#45;&#45;AA</title>
<path fill="none" stroke="black" d="M452.46,-104.38C446.47,-112.17 440.22,-121.35 435.15,-129.77"/>
</g>
<!-- JJ -->
<g id="node10" class="node">
<title>JJ</title>
<ellipse fill="none" stroke="black" cx="526.77" cy="-26.87" rx="27" ry="26.74"/>
<text text-anchor="middle" x="526.77" y="-30.67" font-family="Times,serif" font-size="14.00">21</text>
<text text-anchor="middle" x="526.77" y="-15.67" font-family="Times,serif" font-size="14.00">JJ</text>
</g>
<!-- II&#45;&#45;JJ -->
<g id="edge15" class="edge">
<title>II&#45;&#45;JJ</title>
<path fill="none" stroke="black" d="M495.07,-70.94C501.35,-64.8 507.96,-57.6 513.54,-50.79"/>
</g>
<!-- JJ&#45;&#45;II -->
<g id="edge1" class="edge">
<title>JJ&#45;&#45;II</title>
<path fill="none" stroke="black" d="M504.34,-41.92C498.06,-48.05 491.46,-55.26 485.88,-62.06"/>
</g>
</g>
</svg>
