<?xml version="1.0" encoding="UTF-8" standalone="no"?>
<!DOCTYPE svg PUBLIC "-//W3C//DTD SVG 1.1//EN"
 "http://www.w3.org/Graphics/SVG/1.1/DTD/svg11.dtd">
<!-- Generated by graphviz version 2.43.0 (0)
 -->
<!-- Title: valves Pages: 1 -->
<svg width="706pt" height="449pt"
 viewBox="0.00 0.00 706.04 448.64" xmlns="http://www.w3.org/2000/svg" xmlns:xlink="http://www.w3.org/1999/xlink">
<g id="graph0" class="graph" transform="scale(1 1) rotate(0) translate(4 444.64)">
<title>valves</title>
<polygon fill="white" stroke="transparent" points="-4,4 -4,-444.64 702.04,-444.64 702.04,4 -4,4"/>
<!-- AA -->
<g id="node1" class="node">
<title>AA</title>
<ellipse fill="none" stroke="black" cx="107.95" cy="-251.87" rx="27" ry="26.74"/>
<text text-anchor="middle" x="107.95" y="-255.67" font-family="Times,serif" font-size="14.00">0</text>
<text text-anchor="middle" x="107.95" y="-240.67" font-family="Times,serif" font-size="14.00">AA</text>
</g>
<!-- BB -->
<g id="node2" class="node">
<title>BB</title>
<ellipse fill="none" stroke="black" cx="27" cy="-332.82" rx="27" ry="26.74"/>
<text text-anchor="middle" x="27" y="-336.62" font-family="Times,serif" font-size="14.00">13</text>
<text text-anchor="middle" x="27" y="-321.62" font-family="Times,serif" font-size="14.00">BB</text>
</g>
<!-- AA&#45;&#45;BB -->
<g id="edge17" class="edge">
<title>AA&#45;&#45;BB</title>
<path fill="none" stroke="black" d="M85.07,-266.54C71.1,-278.72 53.73,-296.09 41.58,-310.05"/>
</g>
<!-- DD -->
<g id="node4" class="node">
<title>DD</title>
<ellipse fill="none" stroke="black" cx="188.9" cy="-332.82" rx="27.65" ry="26.74"/>
<text text-anchor="middle" x="188.9" y="-336.62" font-family="Times,serif" font-size="14.00">20</text>
<text text-anchor="middle" x="188.9" y="-321.62" font-family="Times,serif" font-size="14.00">DD</text>
</g>
<!-- AA&#45;&#45;DD -->
<g id="edge15" class="edge">
<title>AA&#45;&#45;DD</title>
<path fill="none" stroke="black" d="M122.62,-274.75C134.72,-288.62 151.93,-305.84 165.83,-317.98"/>
</g>
<!-- II -->
<g id="node9" class="node">
<title>II</title>
<ellipse fill="none" stroke="black" cx="107.95" cy="-152.87" rx="27" ry="26.74"/>
<text text-anchor="middle" x="107.95" y="-156.67" font-family="Times,serif" font-size="14.00">0</text>
<text text-anchor="middle" x="107.95" y="-141.67" font-family="Times,serif" font-size="14.00">II</text>
</g>
<!-- AA&#45;&#45;II -->
<g id="edge16" class="edge">
<title>AA&#45;&#45;II</title>
<path fill="none" stroke="black" d="M113.99,-225.6C114.93,-211.28 114.94,-193.6 114,-179.26"/>
</g>
<!-- BB&#45;&#45;AA -->
<g id="edge12" class="edge">
<title>BB&#45;&#45;AA</title>
<path fill="none" stroke="black" d="M49.88,-318.15C63.85,-305.97 81.22,-288.59 93.37,-274.64"/>
</g>
<!-- CC -->
<g id="node3" class="node">
<title>CC</title>
<ellipse fill="none" stroke="black" cx="107.95" cy="-413.77" rx="27" ry="26.74"/>
<text text-anchor="middle" x="107.95" y="-417.57" font-family="Times,serif" font-size="14.00">2</text>
<text text-anchor="middle" x="107.95" y="-402.57" font-family="Times,serif" font-size="14.00">CC</text>
</g>
<!-- BB&#45;&#45;CC -->
<g id="edge11" class="edge">
<title>BB&#45;&#45;CC</title>
<path fill="none" stroke="black" d="M41.67,-355.7C53.85,-369.67 71.22,-387.04 85.18,-399.19"/>
</g>
<!-- CC&#45;&#45;BB -->
<g id="edge3" class="edge">
<title>CC&#45;&#45;BB</title>
<path fill="none" stroke="black" d="M93.28,-390.89C81.1,-376.92 63.72,-359.55 49.77,-347.4"/>
</g>
<!-- CC&#45;&#45;DD -->
<g id="edge2" class="edge">
<title>CC&#45;&#45;DD</title>
<path fill="none" stroke="black" d="M130.83,-399.09C144.7,-387 161.92,-369.79 174.06,-355.89"/>
</g>
<!-- DD&#45;&#45;AA -->
<g id="edge5" class="edge">
<title>DD&#45;&#45;AA</title>
<path fill="none" stroke="black" d="M174.22,-309.94C162.04,-295.97 144.67,-278.6 130.72,-266.45"/>
</g>
<!-- DD&#45;&#45;CC -->
<g id="edge4" class="edge">
<title>DD&#45;&#45;CC</title>
<path fill="none" stroke="black" d="M165.58,-347.87C151.72,-360 134.64,-377.11 122.61,-390.9"/>
</g>
<!-- EE -->
<g id="node5" class="node">
<title>EE</title>
<ellipse fill="none" stroke="black" cx="287.9" cy="-332.82" rx="27" ry="26.74"/>
<text text-anchor="middle" x="287.9" y="-336.62" font-family="Times,serif" font-size="14.00">3</text>
<text text-anchor="middle" x="287.9" y="-321.62" font-family="Times,serif" font-size="14.00">EE</text>
</g>
<!-- DD&#45;&#45;EE -->
<g id="edge6" class="edge">
<title>DD&#45;&#45;EE</title>
<path fill="none" stroke="black" d="M215.95,-338.91C230.15,-339.8 247.47,-339.79 261.56,-338.86"/>
</g>
<!-- EE&#45;&#45;DD -->
<g id="edge14" class="edge">
<title>EE&#45;&#45;DD</title>
<path fill="none" stroke="black" d="M261.37,-326.76C247.28,-325.85 230,-325.84 215.85,-326.73"/>
</g>
<!-- FF -->
<g id="node6" class="node">
<title>FF</title>
<ellipse fill="none" stroke="black" cx="413.9" cy="-332.82" rx="27" ry="26.74"/>
<text text-anchor="middle" x="413.9" y="-336.62" font-family="Times,serif" font-size="14.00">0</text>
<text text-anchor="middle" x="413.9" y="-321.62" font-family="Times,serif" font-size="14.00">FF</text>
</g>
<!-- EE&#45;&#45;FF -->
<g id="edge13" class="edge">
<title>EE&#45;&#45;FF</title>
<path fill="none" stroke="black" d="M314.31,-338.43C335.67,-339.94 365.62,-339.95 387.09,-338.46"/>
</g>
<!-- FF&#45;&#45;EE -->
<g id="edge7" class="edge">
<title>FF&#45;&#45;EE</title>
<path fill="none" stroke="black" d="M387.48,-327.2C366.12,-325.7 336.18,-325.69 314.71,-327.18"/>
</g>
<!-- GG -->
<g id="node7" class="node">
<title>GG</title>
<ellipse fill="none" stroke="black" cx="540.48" cy="-332.82" rx="27.65" ry="26.74"/>
<text text-anchor="middle" x="540.48" y="-336.62" font-family="Times,serif" font-size="14.00">0</text>
<text text-anchor="middle" x="540.48" y="-321.62" font-family="Times,serif" font-size="14.00">GG</text>
</g>
<!-- FF&#45;&#45;GG -->
<g id="edge8" class="edge">
<title>FF&#45;&#45;GG</title>
<path fill="none" stroke="black" d="M440.43,-338.43C461.75,-339.93 491.57,-339.95 513.1,-338.49"/>
</g>
<!-- GG&#45;&#45;FF -->
<g id="edge9" class="edge">
<title>GG&#45;&#45;FF</title>
<path fill="none" stroke="black" d="M513.32,-327.16C491.82,-325.69 461.95,-325.7 440.57,-327.19"/>
</g>
<!-- HH -->
<g id="node8" class="node">
<title>HH</title>
<ellipse fill="none" stroke="black" cx="669.04" cy="-332.82" rx="28.98" ry="26.74"/>
<text text-anchor="middle" x="669.04" y="-336.62" font-family="Times,serif" font-size="14.00">22</text>
<text text-anchor="middle" x="669.04" y="-321.62" font-family="Times,serif" font-size="14.00">HH</text>
</g>
<!-- GG&#45;&#45;HH -->
<g id="edge10" class="edge">
<title>GG&#45;&#45;HH</title>
<path fill="none" stroke="black" d="M567.74,-338.46C589.12,-339.91 618.78,-339.94 640.48,-338.54"/>
</g>
<!-- HH&#45;&#45;GG -->
<g id="edge1" class="edge">
<title>HH&#45;&#45;GG</title>
<path fill="none" stroke="black" d="M640.51,-327.1C618.76,-325.7 589,-325.73 567.61,-327.19"/>
</g>
<!-- II&#45;&#45;AA -->
<g id="edge18" class="edge">
<title>II&#45;&#45;AA</title>
<path fill="none" stroke="black" d="M101.91,-179.14C100.97,-193.46 100.96,-211.14 101.9,-225.48"/>
</g>
<!-- JJ -->
<g id="node10" class="node">
<title>JJ</title>
<ellipse fill="none" stroke="black" cx="107.95" cy="-26.87" rx="27" ry="26.74"/>
<text text-anchor="middle" x="107.95" y="-30.67" font-family="Times,serif" font-size="14.00">21</text>
<text text-anchor="middle" x="107.95" y="-15.67" font-family="Times,serif" font-size="14.00">JJ</text>
</g>
<!-- II&#45;&#45;JJ -->
<g id="edge19" class="edge">
<title>II&#45;&#45;JJ</title>
<path fill="none" stroke="black" d="M113.56,-126.46C115.08,-104.95 115.08,-74.74 113.56,-53.25"/>
</g>
<!-- JJ&#45;&#45;II -->
<g id="edge20" class="edge">
<title>JJ&#45;&#45;II</title>
<path fill="none" stroke="black" d="M102.33,-53.28C100.82,-74.79 100.82,-105 102.34,-126.49"/>
</g>
</g>
</svg>
