<?xml version="1.0" encoding="UTF-8"?>
<!DOCTYPE svg PUBLIC "-//W3C//DTD SVG 1.1//EN"
    "http://www.w3.org/Graphics/SVG/1.1/DTD/svg11.dtd"><svg xmlns="http://www.w3.org/2000/svg" height="947.8261" stroke-opacity="1" viewBox="0 0 1000 948" font-size="1" width="1000.0000" xmlns:xlink="http://www.w3.org/1999/xlink" stroke="rgb(0,0,0)" version="1.1"><defs></defs><g stroke-linejoin="miter" stroke-opacity="1.0" fill-opacity="0.0" stroke="rgb(0,0,0)" stroke-width="3.8942544076246923" fill="rgb(0,0,0)" stroke-linecap="butt" stroke-miterlimit="10.0"><path d="M 252.1739,926.0870 v 3.9526 v 3.9526 v 3.9526 l 7.9051,-15.8103 h -3.9526 h -3.9526 l 11.8577,-15.8103 v 3.9526 v 3.9526 v 3.9526 v 3.9526 l 11.8577,-19.7628 h -3.9526 h -3.9526 h -3.9526 l 15.8103,11.8577 v -3.9526 v -3.9526 v -3.9526 l -3.9526,15.8103 h 3.9526 h -7.9051 l 15.8103,3.9526 h -3.9526 h -3.9526 h -3.9526 h -3.9526 l 19.7628,-3.9526 v 3.9526 l 3.9526,-7.9051 h -3.9526 l 7.9051,15.8103 v -3.9526 v -3.9526 v -3.9526 v -3.9526 l 11.8577,19.7628 h -3.9526 h -3.9526 h -3.9526 l 15.8103,7.9051 v -3.9526 v -3.9526 l 11.8577,11.8577 h -3.9526 h -3.9526 h -3.9526 h 15.8103 l 3.9526,-3.9526 h -3.9526 l 7.9051,-7.9051 v 3.9526 v 3.9526 l 7.9051,-11.8577 h -3.9526 h -3.9526 h 11.8577 l -15.8103,-3.9526 h 3.9526 h 3.9526 h 3.9526 h 3.9526 l -19.7628,-3.9526 v 3.9526 l -7.9051,-7.9051 h 3.9526 h 3.9526 l -11.8577,-7.9051 v 3.9526 v 3.9526 l -7.9051,-11.8577 h 3.9526 h 3.9526 l -11.8577,11.8577 v -3.9526 v -3.9526 v -3.9526 v 15.8103 l -3.9526,-15.8103 v 3.9526 v 3.9526 v 3.9526 v 3.9526 l -3.9526,-19.7628 h 3.9526 l -7.9051,15.8103 v -3.9526 v -3.9526 v -3.9526 v -3.9526 l -7.9051,19.7628 h 3.9526 h 3.9526 l -11.8577,-7.9051 v 3.9526 v 3.9526 v -11.8577 l 3.9526,-11.8577 v 3.9526 v 3.9526 v 3.9526 v -15.8103 l -3.9526,-3.9526 v 3.9526 v -7.9051 l -3.9526,15.8103 v -3.9526 v -3.9526 v -3.9526 v -3.9526 l 3.9526,19.7628 h -3.9526 l 7.9051,-7.9051 v 3.9526 v 3.9526 l 11.8577,-11.8577 h -3.9526 h -3.9526 h -3.9526 l 15.8103,-11.8577 v 3.9526 v 3.9526 v 3.9526 v -15.8103 h -3.9526 l -7.9051,-3.9526 h 3.9526 h 3.9526 l -11.8577,-15.8103 v 3.9526 v 3.9526 v 3.9526 v 3.9526 l -15.8103,-19.7628 h 3.9526 h 3.9526 h 3.9526 h 3.9526 l -19.7628,-11.8577 v 3.9526 v 3.9526 v 3.9526 l -7.9051,-15.8103 h 3.9526 h 3.9526 l -11.8577,-15.8103 v 3.9526 v 3.9526 v 3.9526 v 3.9526 l 15.8103,-19.7628 h -3.9526 h -3.9526 h -3.9526 h -3.9526 l 19.7628,-3.9526 v 3.9526 v -7.9051 l -3.9526,7.9051 v -3.9526 v -3.9526 l 15.8103,11.8577 h -3.9526 h -3.9526 h -3.9526 h -3.9526 l 19.7628,3.9526 v -3.9526 l 3.9526,7.9051 h -3.9526 l 7.9051,-11.8577 v 3.9526 v 3.9526 v 3.9526 l 11.8577,-15.8103 h -3.9526 h -3.9526 h -3.9526 l 15.8103,7.9051 v -3.9526 v -3.9526 l -15.8103,11.8577 h 3.9526 h 3.9526 h 3.9526 h 3.9526 l -19.7628,15.8103 v -3.9526 v -3.9526 v -3.9526 v -3.9526 l 7.9051,19.7628 h -3.9526 h -3.9526 l 11.8577,11.8577 v -3.9526 v -3.9526 v -3.9526 v 15.8103 l -3.9526,15.8103 v -3.9526 v -3.9526 v -3.9526 v -3.9526 v 19.7628 l -3.9526,11.8577 v -3.9526 v -3.9526 v -3.9526 l -7.9051,15.8103 h 3.9526 h 3.9526 l -11.8577,-15.8103 v 3.9526 v 3.9526 v 3.9526 v 3.9526 l -3.9526,-19.7628 h 3.9526 h -7.9051 l 15.8103,3.9526 h -3.9526 h -3.9526 h -3.9526 h -3.9526 l 19.7628,3.9526 v -3.9526 l 15.8103,7.9051 h -3.9526 h -3.9526 h -3.9526 h -3.9526 l 19.7628,-11.8577 v 3.9526 v 3.9526 v 3.9526 l -11.8577,-15.8103 h 3.9526 h 3.9526 h 3.9526 l -15.8103,11.8577 v -3.9526 v -3.9526 v -3.9526 l 7.9051,15.8103 h -3.9526 h -3.9526 h 11.8577 l -11.8577,-3.9526 h 3.9526 h 3.9526 h 3.9526 h -15.8103 l 7.9051,3.9526 h -3.9526 h -3.9526 h 11.8577 v 3.9526 l -3.9526,-7.9051 v 3.9526 v 3.9526 l -3.9526,-11.8577 h 3.9526 l -7.9051,15.8103 v -3.9526 v -3.9526 v -3.9526 v -3.9526 l -7.9051,19.7628 h 3.9526 h 3.9526 l -11.8577,-15.8103 v 3.9526 v 3.9526 v 3.9526 v 3.9526 l -15.8103,-19.7628 h 3.9526 h 3.9526 h 3.9526 h 3.9526 l -19.7628,11.8577 v -3.9526 v -3.9526 v -3.9526 l 3.9526,15.8103 h -3.9526 l 7.9051,-7.9051 v 3.9526 v 3.9526 l -3.9526,-11.8577 h 3.9526 h -7.9051 l 7.9051,-3.9526 h -3.9526 h -3.9526 h 11.8577 l 11.8577,-3.9526 h -3.9526 h -3.9526 h -3.9526 h 15.8103 l 11.8577,3.9526 h -3.9526 h -3.9526 h -3.9526 l 15.8103,-750.9881 v 3.9526 v 3.9526 v 3.9526 v 3.9526 v 3.9526 v 3.9526 v 3.9526 v 3.9526 v 3.9526 v 3.9526 v 3.9526 v 3.9526 v 3.9526 v 3.9526 v 3.9526 v 3.9526 v 3.9526 v 3.9526 v 3.9526 v 3.9526 v 3.9526 v 3.9526 v 3.9526 v 3.9526 v 3.9526 v 3.9526 v 3.9526 v 3.9526 v 3.9526 v 3.9526 v 3.9526 v 3.9526 v 3.9526 v 3.9526 v 3.9526 v 3.9526 v 3.9526 v 3.9526 v 3.9526 v 3.9526 v 3.9526 v 3.9526 v 3.9526 v 3.9526 v 3.9526 v 3.9526 v 3.9526 v 3.9526 v 3.9526 v 3.9526 v 3.9526 v 3.9526 v 3.9526 v 3.9526 v 3.9526 v 3.9526 v 3.9526 v 3.9526 v 3.9526 v 3.9526 v 3.9526 v 3.9526 v 3.9526 v 3.9526 v 3.9526 v 3.9526 v 3.9526 v 3.9526 v 3.9526 v 3.9526 v 3.9526 v 3.9526 v 3.9526 v 3.9526 v 3.9526 v 3.9526 v 3.9526 v 3.9526 v 3.9526 v 3.9526 v 3.9526 v 3.9526 v 3.9526 v 3.9526 v 3.9526 v 3.9526 v 3.9526 v 3.9526 v 3.9526 v 3.9526 v 3.9526 v 3.9526 v 3.9526 v 3.9526 v 3.9526 v 3.9526 v 3.9526 v 3.9526 v 3.9526 v 3.9526 v 3.9526 v 3.9526 v 3.9526 v 3.9526 v 3.9526 v 3.9526 v 3.9526 v 3.9526 v 3.9526 v 3.9526 v 3.9526 v 3.9526 v 3.9526 v 3.9526 v 3.9526 v 3.9526 v 3.9526 v 3.9526 v 3.9526 v 3.9526 v 3.9526 v 3.9526 v 3.9526 v 3.9526 v 3.9526 v 3.9526 v 3.9526 v 3.9526 v 3.9526 v 3.9526 v 3.9526 v 3.9526 v 3.9526 v 3.9526 v 3.9526 v 3.9526 v 3.9526 v 3.9526 v 3.9526 v 3.9526 v 3.9526 v 3.9526 v 3.9526 v 3.9526 v 3.9526 v 3.9526 v 3.9526 v 3.9526 v 3.9526 v 3.9526 v 3.9526 v 3.9526 v 3.9526 v 3.9526 v 3.9526 v 3.9526 v 3.9526 v 3.9526 v 3.9526 v 3.9526 v 3.9526 v 3.9526 v 3.9526 v 3.9526 v 3.9526 v 3.9526 v 3.9526 v 3.9526 v 3.9526 v 3.9526 v 3.9526 v 3.9526 v 3.9526 v 3.9526 v 3.9526 v 3.9526 v 3.9526 v 3.9526 v 3.9526 v 3.9526 v 3.9526 v 3.9526 v 3.9526 v 3.9526 v 3.9526 v 3.9526 v 3.9526 v 3.9526 v 3.9526 v 3.9526 l -7.9051,-754.9407 h 3.9526 h 3.9526 l -11.8577,-7.9051 v 3.9526 v 3.9526 l 7.9051,-11.8577 h -3.9526 h -3.9526 l 11.8577,-7.9051 v 3.9526 v 3.9526 l -11.8577,-11.8577 h 3.9526 h 3.9526 h 3.9526 h -15.8103 l 15.8103,-3.9526 h -3.9526 h -3.9526 h -3.9526 h -3.9526 h 19.7628 l 11.8577,-3.9526 h -3.9526 h -3.9526 h -3.9526 l 15.8103,-7.9051 v 3.9526 v 3.9526 l -304.3478,-11.8577 h 3.9526 h 3.9526 h 3.9526 h 3.9526 h 3.9526 h 3.9526 h 3.9526 h 3.9526 h 3.9526 h 3.9526 h 3.9526 h 3.9526 h 3.9526 h 3.9526 h 3.9526 h 3.9526 h 3.9526 h 3.9526 h 3.9526 h 3.9526 h 3.9526 h 3.9526 h 3.9526 h 3.9526 h 3.9526 h 3.9526 h 3.9526 h 3.9526 h 3.9526 h 3.9526 h 3.9526 h 3.9526 h 3.9526 h 3.9526 h 3.9526 h 3.9526 h 3.9526 h 3.9526 h 3.9526 h 3.9526 h 3.9526 h 3.9526 h 3.9526 h 3.9526 h 3.9526 h 3.9526 h 3.9526 h 3.9526 h 3.9526 h 3.9526 h 3.9526 h 3.9526 h 3.9526 h 3.9526 h 3.9526 h 3.9526 h 3.9526 h 3.9526 h 3.9526 h 3.9526 h 3.9526 h 3.9526 h 3.9526 h 3.9526 h 3.9526 h 3.9526 h 3.9526 h 3.9526 h 3.9526 h 3.9526 h 3.9526 h 3.9526 h 3.9526 h 3.9526 h 3.9526 h 3.9526 h 3.9526 h -308.3004 v 3.9526 l 3.9526,205.5336 v -3.9526 v -3.9526 v -3.9526 v -3.9526 v -3.9526 v -3.9526 v -3.9526 v -3.9526 v -3.9526 v -3.9526 v -3.9526 v -3.9526 v -3.9526 v -3.9526 v -3.9526 v -3.9526 v -3.9526 v -3.9526 v -3.9526 v -3.9526 v -3.9526 v -3.9526 v -3.9526 v -3.9526 v -3.9526 v -3.9526 v -3.9526 v -3.9526 v -3.9526 v -3.9526 v -3.9526 v -3.9526 v -3.9526 v -3.9526 v -3.9526 v -3.9526 v -3.9526 v -3.9526 v -3.9526 v -3.9526 v -3.9526 v -3.9526 v -3.9526 v -3.9526 v -3.9526 v -3.9526 v -3.9526 v -3.9526 v -3.9526 v -3.9526 v -3.9526 v -3.9526 l 15.8103,209.4862 h -3.9526 h -3.9526 h -3.9526 h -3.9526 l 19.7628,-11.8577 v 3.9526 v 3.9526 v 3.9526 v -15.8103 h -3.9526 l 3.9526,-3.9526 h -3.9526 l 7.9051,-3.9526 v 3.9526 l -3.9526,-7.9051 h 3.9526 h -7.9051 l -3.9526,3.9526 h 3.9526 l -7.9051,-7.9051 v 3.9526 v 3.9526 v -11.8577 h 3.9526 l 15.8103,3.9526 h -3.9526 h -3.9526 h -3.9526 h -3.9526 h 19.7628 v -3.9526 l 3.9526,11.8577 v -3.9526 v -3.9526 v -3.9526 l 727.2727,15.8103 h -3.9526 h -3.9526 h -3.9526 h -3.9526 h -3.9526 h -3.9526 h -3.9526 h -3.9526 h -3.9526 h -3.9526 h -3.9526 h -3.9526 h -3.9526 h -3.9526 h -3.9526 h -3.9526 h -3.9526 h -3.9526 h -3.9526 h -3.9526 h -3.9526 h -3.9526 h -3.9526 h -3.9526 h -3.9526 h -3.9526 h -3.9526 h -3.9526 h -3.9526 h -3.9526 h -3.9526 h -3.9526 h -3.9526 h -3.9526 h -3.9526 h -3.9526 h -3.9526 h -3.9526 h -3.9526 h -3.9526 h -3.9526 h -3.9526 h -3.9526 h -3.9526 h -3.9526 h -3.9526 h -3.9526 h -3.9526 h -3.9526 h -3.9526 h -3.9526 h -3.9526 h -3.9526 h -3.9526 h -3.9526 h -3.9526 h -3.9526 h -3.9526 h -3.9526 h -3.9526 h -3.9526 h -3.9526 h -3.9526 h -3.9526 h -3.9526 h -3.9526 h -3.9526 h -3.9526 h -3.9526 h -3.9526 h -3.9526 h -3.9526 h -3.9526 h -3.9526 h -3.9526 h -3.9526 h -3.9526 h -3.9526 h -3.9526 h -3.9526 h -3.9526 h -3.9526 h -3.9526 h -3.9526 h -3.9526 h -3.9526 h -3.9526 h -3.9526 h -3.9526 h -3.9526 h -3.9526 h -3.9526 h -3.9526 h -3.9526 h -3.9526 h -3.9526 h -3.9526 h -3.9526 h -3.9526 h -3.9526 h -3.9526 h -3.9526 h -3.9526 h -3.9526 h -3.9526 h -3.9526 h -3.9526 h -3.9526 h -3.9526 h -3.9526 h -3.9526 h -3.9526 h -3.9526 h -3.9526 h -3.9526 h -3.9526 h -3.9526 h -3.9526 h -3.9526 h -3.9526 h -3.9526 h -3.9526 h -3.9526 h -3.9526 h -3.9526 h -3.9526 h -3.9526 h -3.9526 h -3.9526 h -3.9526 h -3.9526 h -3.9526 h -3.9526 h -3.9526 h -3.9526 h -3.9526 h -3.9526 h -3.9526 h -3.9526 h -3.9526 h -3.9526 h -3.9526 h -3.9526 h -3.9526 h -3.9526 h -3.9526 h -3.9526 h -3.9526 h -3.9526 h -3.9526 h -3.9526 h -3.9526 h -3.9526 h -3.9526 h -3.9526 h -3.9526 h -3.9526 h -3.9526 h -3.9526 h -3.9526 h -3.9526 h -3.9526 h -3.9526 h -3.9526 h -3.9526 h -3.9526 h -3.9526 h -3.9526 h -3.9526 h -3.9526 h -3.9526 h -3.9526 h -3.9526 h -3.9526 h -3.9526 h -3.9526 h -3.9526 h -3.9526 h -3.9526 h -3.9526 h -3.9526 h -3.9526 h -3.9526 h -3.9526 h 731.2253 v 3.9526 h 3.9526 v -3.9526 l 3.9526,3.9526 v -3.9526 l -11.8577,7.9051 h 3.9526 h 3.9526 h 3.9526 l -15.8103,11.8577 v -3.9526 v -3.9526 v -3.9526 l 15.8103,15.8103 h -3.9526 h -3.9526 h -3.9526 h -3.9526 l 19.7628,3.9526 v -3.9526 l -7.9051,7.9051 h 3.9526 h 3.9526 h -11.8577 l -15.8103,-3.9526 h 3.9526 h 3.9526 h 3.9526 h 3.9526 h -19.7628 v -3.9526 l -3.9526,3.9526 v -3.9526 l 15.8103,7.9051 h -3.9526 h -3.9526 h -3.9526 h -3.9526 l 19.7628,3.9526 v -3.9526 l 15.8103,7.9051 h -3.9526 h -3.9526 h -3.9526 h -3.9526 l 19.7628,-7.9051 v 3.9526 v 3.9526 l 7.9051,-11.8577 h -3.9526 h -3.9526 h 11.8577 l 11.8577,-3.9526 h -3.9526 h -3.9526 h -3.9526 h 15.8103 l 15.8103,-3.9526 h -3.9526 h -3.9526 h -3.9526 h -3.9526 l 19.7628,3.9526 v -3.9526 l 3.9526,7.9051 h -3.9526 l 7.9051,-7.9051 v 3.9526 v 3.9526 l 11.8577,-11.8577 h -3.9526 h -3.9526 h -3.9526 l 15.8103,15.8103 v -3.9526 v -3.9526 v -3.9526 v -3.9526 l 3.9526,19.7628 h -3.9526 l 7.9051,15.8103 v -3.9526 v -3.9526 v -3.9526 v -3.9526 l 7.9051,19.7628 h -3.9526 h -3.9526 h 11.8577 v 3.9526 l 3.9526,-3.9526 v 3.9526 v -7.9051 l 3.9526,3.9526 v -3.9526 l 3.9526,7.9051 h -3.9526 l 7.9051,-11.8577 v 3.9526 v 3.9526 v 3.9526 v -15.8103 l 3.9526,-7.9051 v 3.9526 v 3.9526 l 11.8577,-11.8577 h -3.9526 h -3.9526 h -3.9526 "/></g></svg>